<?xml version="1.0" encoding="utf-8"?><svg aria-hidden="true" role="img" xmlns="http://www.w3.org/2000/svg" viewBox="0 0 512 512"><path fill="rgb(25, 115, 230)" d="M16 218h128c8.837 0 16-7.163 16-16v-40c0-8.837-7.163-16-16-16H16c-8.837 0-16 7.163-16 16v40c0 8.837 7.163 16 16 16zM56 342h48c8.837 0 16-7.163 16-16v-40c0-8.837-7.163-16-16-16H56c-8.837 0-16 7.163-16 16v40c0 8.837 7.163 16 16 16zM248 218h208c8.837 0 16-7.163 16-16v-40c0-8.837-7.163-16-16-16H248c-8.837 0-16 7.163-16 16v40c0 8.837 7.163 16 16 16zM208 342h288c8.837 0 16-7.163 16-16v-40c0-8.837-7.163-16-16-16H208c-8.837 0-16 7.163-16 16v40c0 8.837 7.163 16 16 16z"></path></svg>